<svg width="386" height="112" viewBox="0 0 386 112" fill="none" xmlns="http://www.w3.org/2000/svg">
<path d="M2.7 68V66.425C5.4 66.425 6.975 65.925 7.425 64.925V27.2C6.975 26.2 5.4 25.7 2.7 25.7V24.125H16.275L32.25 59L48.225 24.125H61.95V25.7C59.25 25.7 57.675 26.2 57.225 27.2V64.925C57.675 65.925 59.25 66.425 61.95 66.425V68H42.975V66.425C45.675 66.425 47.25 65.925 47.7 64.925V31.25L30.9 68H27.15L9.975 30.8V64.925C10.425 65.925 12 66.425 14.7 66.425V68H2.7ZM82.5229 24.125V25.7C80.1729 25.7 78.7229 26 78.1729 26.6L89.7979 46.925L101.798 27.05C101.248 26.15 99.6979 25.7 97.1479 25.7V24.125H109.448V25.7C106.998 25.7 105.573 26.025 105.173 26.675L91.6729 49.1V64.925C92.1229 65.925 93.6979 66.425 96.3979 66.425V68H77.4229V66.425C80.1229 66.425 81.6979 65.925 82.1479 64.925V51.5L68.2729 27.2C67.6729 26.2 66.0729 25.7 63.4729 25.7V24.125H82.5229ZM111.172 68V66.425C113.872 66.425 115.447 65.925 115.897 64.925V27.2C115.447 26.2 113.872 25.7 111.172 25.7V24.125H142.147V31.4H140.572C140.572 28.7 140.072 27.125 139.072 26.675H125.422V43.925H134.047C135.047 43.475 135.547 41.9 135.547 39.2H137.122V51.2H135.547C135.547 48.5 135.047 46.925 134.047 46.475H125.422V64.925C125.872 65.925 127.447 66.425 130.147 66.425V68H111.172ZM146.181 68V66.425C148.881 66.425 150.456 65.925 150.906 64.925V27.2C150.456 26.2 148.881 25.7 146.181 25.7V24.125H165.156V25.7C162.456 25.7 160.881 26.2 160.431 27.2V65.45H176.031C177.281 64.9 178.406 63.325 179.406 60.725H180.906L179.106 68H146.181ZM192.56 45.5C192.56 48.9 192.91 52.075 193.61 55.025C194.36 57.975 195.71 60.575 197.66 62.825C199.61 65.075 202.06 66.2 205.01 66.2C207.26 66.2 209.185 65.625 210.785 64.475C212.385 63.275 213.61 61.675 214.46 59.675C215.31 57.675 215.91 55.625 216.26 53.525C216.66 51.375 216.86 49.1 216.86 46.7C216.86 43.35 216.485 40.175 215.735 37.175C214.985 34.175 213.635 31.55 211.685 29.3C209.735 27.05 207.31 25.925 204.41 25.925C202.16 25.925 200.235 26.525 198.635 27.725C197.035 28.925 195.81 30.525 194.96 32.525C194.11 34.525 193.485 36.6 193.085 38.75C192.735 40.85 192.56 43.1 192.56 45.5ZM188.885 62.075C184.585 57.575 182.435 52.25 182.435 46.1C182.435 39.95 184.61 34.625 188.96 30.125C193.31 25.625 198.56 23.375 204.71 23.375C210.86 23.375 216.11 25.625 220.46 30.125C224.81 34.625 226.985 39.95 226.985 46.1C226.985 52.25 224.785 57.575 220.385 62.075C216.035 66.525 210.81 68.75 204.71 68.75C198.51 68.75 193.235 66.525 188.885 62.075ZM231.728 68V66.425C234.428 66.425 236.003 65.925 236.453 64.925V27.2C236.003 26.2 234.428 25.7 231.728 25.7V24.125H250.178C256.378 24.125 261.078 25.25 264.278 27.5C267.478 29.75 269.078 32.325 269.078 35.225C269.078 37.975 268.253 40.4 266.603 42.5C264.953 44.55 262.503 46.05 259.253 47L269.228 64.85C269.728 65.9 271.378 66.425 274.178 66.425V68H270.953C267.003 68 264.078 67.775 262.178 67.325C260.328 66.875 258.928 65.8 257.978 64.1L248.903 48.05H245.978V64.925C246.428 65.925 248.003 66.425 250.703 66.425V68H231.728ZM245.978 26.675V45.5H248.453C251.853 45.5 254.453 44.75 256.253 43.25C258.053 41.7 258.953 39.05 258.953 35.3C258.953 32.4 257.928 30.25 255.878 28.85C253.878 27.4 251.103 26.675 247.553 26.675H245.978ZM275.893 68V66.425C278.593 66.425 280.168 65.925 280.618 64.925V27.2C280.168 26.2 278.593 25.7 275.893 25.7V24.125H294.868V25.7C292.168 25.7 290.593 26.2 290.143 27.2V64.925C290.593 65.925 292.168 66.425 294.868 66.425V68H275.893ZM300.283 68.075V66.5C302.983 66.5 304.558 66 305.008 65V27.275C304.558 26.275 302.983 25.775 300.283 25.775V24.2H317.533C324.283 24.2 329.833 26.25 334.183 30.35C338.583 34.4 340.783 39.625 340.783 46.025C340.783 52.475 338.633 57.775 334.333 61.925C330.083 66.025 324.783 68.075 318.433 68.075H300.283ZM314.533 26.375V65.525H318.433C321.833 65.525 324.708 63.925 327.058 60.725C329.458 57.525 330.658 52.65 330.658 46.1C330.658 39.5 329.408 34.575 326.908 31.325C324.408 28.025 321.283 26.375 317.533 26.375H314.533ZM366.936 68V66.425C369.236 66.425 370.686 66.125 371.286 65.525L367.086 54.05H352.686L348.786 65.075C349.286 65.975 350.836 66.425 353.436 66.425V68H341.136V66.425C343.886 66.425 345.461 65.9 345.861 64.85L360.411 24.125H366.486L381.186 64.85C381.536 65.9 383.136 66.425 385.986 66.425V68H366.936ZM359.811 34.1L353.586 51.575H366.186L359.811 34.1Z" fill="black"/>
<path d="M61.2 99.68C62.2133 99.6267 62.9067 99.4 63.28 99C63.6533 98.5733 63.8533 98 63.88 97.28C63.9333 96.5333 63.96 95.6933 63.96 94.76V77.48C63.96 76.9467 63.9733 76.44 64 75.96C64.0267 75.4533 64.0533 75 64.08 74.6C63.6 74.6267 63.12 74.6533 62.64 74.68C62.16 74.7067 61.68 74.7333 61.2 74.76V73C62.6133 72.9733 64.0667 72.96 65.56 72.96C67.0533 72.9333 68.5733 72.92 70.12 72.92C72.7067 72.92 74.88 73.2133 76.64 73.8C78.4 74.3867 79.7467 75.2533 80.68 76.4C81.6133 77.5467 82.12 78.9733 82.2 80.68C82.2533 81.72 82.0933 82.8133 81.72 83.96C81.3733 85.08 80.7067 86.1467 79.72 87.16C78.76 88.1467 77.4 88.9467 75.64 89.56C73.88 90.1733 71.6267 90.48 68.88 90.48C68.7733 90.48 68.5733 90.48 68.28 90.48C67.9867 90.48 67.7067 90.4667 67.44 90.44V96.24C67.44 96.96 67.4267 97.5867 67.4 98.12C67.4 98.6267 67.3733 99.0533 67.32 99.4C67.7467 99.3733 68.16 99.3467 68.56 99.32C68.96 99.2933 69.36 99.28 69.76 99.28C70.1867 99.2533 70.6 99.2267 71 99.2V101H61.2V99.68ZM67.44 88.8C67.9467 88.8533 68.3733 88.8933 68.72 88.92C69.0933 88.92 69.5333 88.92 70.04 88.92C71.56 88.92 72.9467 88.6267 74.2 88.04C75.4533 87.4267 76.4533 86.56 77.2 85.44C77.9467 84.32 78.32 82.9867 78.32 81.44C78.32 80.1867 78.12 79.12 77.72 78.24C77.32 77.3333 76.7467 76.6133 76 76.08C75.28 75.52 74.4133 75.12 73.4 74.88C72.3867 74.6133 71.2667 74.48 70.04 74.48C69.1067 74.48 68.4533 74.68 68.08 75.08C67.7333 75.48 67.5333 76.04 67.48 76.76C67.4533 77.4533 67.44 78.28 67.44 79.24V88.8ZM93.5256 101V99.68C94.3256 99.68 94.939 99.4667 95.3656 99.04C95.7923 98.6133 96.139 98.0267 96.4056 97.28C96.699 96.5333 97.0323 95.6667 97.4056 94.68L105.646 72.24H106.606L115.526 95C115.739 95.56 115.979 96.28 116.246 97.16C116.512 98.04 116.619 98.7867 116.566 99.4C117.019 99.3733 117.472 99.3467 117.926 99.32C118.379 99.2933 118.832 99.2667 119.286 99.24V101H110.126V99.68C111.139 99.6533 111.806 99.4267 112.126 99C112.446 98.5733 112.566 98.0667 112.486 97.48C112.406 96.8933 112.272 96.36 112.086 95.88L110.686 92.12L100.286 92.36L98.8856 96.64C98.699 97.28 98.5256 97.7867 98.3656 98.16C98.2323 98.5333 98.0723 98.9467 97.8856 99.4C98.419 99.3733 98.939 99.3467 99.4456 99.32C99.979 99.2933 100.499 99.2667 101.006 99.24V101H93.5256ZM100.886 90.64H110.126L107.286 83C106.992 82.1733 106.686 81.36 106.366 80.56C106.072 79.7333 105.779 78.9067 105.486 78.08H105.406C105.139 78.8267 104.859 79.5733 104.566 80.32C104.299 81.0667 104.019 81.8267 103.726 82.6L100.886 90.64ZM140.513 74.32C139.526 74.3467 138.833 74.5733 138.433 75C138.059 75.4267 137.846 76 137.793 76.72C137.766 77.44 137.753 78.28 137.753 79.24V96.24C137.753 96.96 137.739 97.5867 137.713 98.12C137.713 98.6267 137.686 99.0533 137.633 99.4C138.113 99.3733 138.593 99.3467 139.073 99.32C139.553 99.2933 140.033 99.2667 140.513 99.24V101H131.513V99.68C132.526 99.6267 133.219 99.4 133.593 99C133.966 98.5733 134.166 98 134.193 97.28C134.246 96.5333 134.273 95.6933 134.273 94.76V77.48C134.273 76.9467 134.286 76.44 134.312 75.96C134.339 75.4533 134.366 75 134.393 74.6C133.913 74.6267 133.433 74.6533 132.953 74.68C132.473 74.7067 131.993 74.7333 131.513 74.76V73H140.513V74.32ZM177.299 101.64L161.339 80.2C161.099 79.88 160.859 79.5733 160.619 79.28C160.405 78.96 160.179 78.64 159.939 78.32H159.899L160.019 95.44C160.019 96.1067 160.019 96.7733 160.019 97.44C160.019 98.1067 159.992 98.76 159.939 99.4C160.419 99.3733 160.899 99.3467 161.379 99.32C161.859 99.2933 162.339 99.2667 162.819 99.24V101H155.499V99.68C156.325 99.68 156.912 99.5067 157.259 99.16C157.632 98.7867 157.872 98.36 157.979 97.88C158.085 97.3733 158.139 96.92 158.139 96.52L158.179 77.28C158.179 76.8267 158.179 76.3733 158.179 75.92C158.179 75.4667 158.179 75.0267 158.179 74.6C157.752 74.6267 157.312 74.6533 156.859 74.68C156.405 74.7067 155.952 74.7333 155.499 74.76V73H160.259L175.259 93.08C175.605 93.5333 175.939 93.9867 176.259 94.44C176.605 94.8933 176.952 95.3467 177.299 95.8H177.339L177.379 77.48C177.379 76.9467 177.392 76.44 177.419 75.96C177.445 75.4533 177.472 75 177.499 74.6C177.019 74.6267 176.539 74.6533 176.059 74.68C175.579 74.7067 175.099 74.7333 174.619 74.76V73H181.979V74.32C180.992 74.3467 180.312 74.5733 179.939 75C179.565 75.4267 179.365 76 179.339 76.72C179.312 77.44 179.299 78.28 179.299 79.24L179.219 101.64H177.299ZM217.355 81.44C217.329 79.8667 217.169 78.56 216.875 77.52C216.582 76.48 216.062 75.7067 215.315 75.2C214.595 74.6667 213.542 74.4133 212.155 74.44H208.755L208.715 96.24C208.715 96.96 208.702 97.5867 208.675 98.12C208.675 98.6267 208.649 99.0533 208.595 99.4C209.155 99.3733 209.702 99.3467 210.235 99.32C210.795 99.2933 211.355 99.2667 211.915 99.24V101H202.515V99.68C203.529 99.6267 204.209 99.3867 204.555 98.96C204.929 98.5333 205.129 97.96 205.155 97.24C205.209 96.4933 205.235 95.6667 205.235 94.76L205.275 74.48L201.155 74.52C199.475 74.52 198.289 75.08 197.595 76.2C196.902 77.32 196.555 79.0667 196.555 81.44H195.075L195.315 73H218.635L218.875 81.44H217.355ZM246.409 90.64C246.409 89.4667 246.249 88.6267 245.929 88.12C245.609 87.6133 245.102 87.3067 244.409 87.2C243.716 87.0933 242.796 87.0667 241.649 87.12L238.729 87.24V96.4C238.729 97.12 238.716 97.7333 238.689 98.24C238.689 98.7467 238.662 99.1733 238.609 99.52L246.249 99.4C247.422 99.3733 248.436 99.1867 249.289 98.84C250.142 98.4667 250.809 97.8267 251.289 96.92C251.769 96.0133 252.009 94.7733 252.009 93.2H253.369L253.129 101H232.489V99.68C233.502 99.6267 234.196 99.4 234.569 99C234.942 98.5733 235.142 98 235.169 97.28C235.222 96.5333 235.249 95.6933 235.249 94.76V77.48C235.249 76.9467 235.262 76.44 235.289 75.96C235.316 75.4533 235.342 75 235.369 74.6C234.889 74.6267 234.409 74.6533 233.929 74.68C233.449 74.7067 232.969 74.7333 232.489 74.76V73H251.729L251.929 80H250.609C250.609 78.4267 250.369 77.24 249.889 76.44C249.409 75.6133 248.756 75.0667 247.929 74.8C247.129 74.5067 246.222 74.3733 245.209 74.4L241.769 74.48C240.782 74.5067 240.076 74.6933 239.649 75.04C239.222 75.3867 238.956 75.9067 238.849 76.6C238.769 77.2667 238.729 78.1467 238.729 79.24V85.64L246.249 85.68L245.969 82.24H247.729V90.64H246.409ZM267.88 101V99.68C268.893 99.6267 269.586 99.4 269.96 99C270.333 98.5733 270.533 98 270.56 97.28C270.613 96.5333 270.64 95.6933 270.64 94.76V77.48C270.64 76.9467 270.653 76.44 270.68 75.96C270.706 75.4533 270.733 75 270.76 74.6C270.28 74.6267 269.8 74.6533 269.32 74.68C268.84 74.7067 268.36 74.7333 267.88 74.76V73C269.373 72.9733 270.88 72.9467 272.4 72.92C273.946 72.8933 275.493 72.9067 277.04 72.96C279.626 72.9867 281.706 73.2933 283.28 73.88C284.88 74.44 286.053 75.2533 286.8 76.32C287.546 77.36 287.92 78.6267 287.92 80.12C287.946 81.16 287.746 82.2267 287.32 83.32C286.92 84.3867 286.173 85.3467 285.08 86.2C284.013 87.0533 282.466 87.6933 280.44 88.12C280.973 88.4933 281.44 88.9733 281.84 89.56C282.24 90.1467 282.693 90.8267 283.2 91.6L285.92 95.88C286.373 96.6 286.813 97.2533 287.24 97.84C287.666 98.4 288.16 98.8533 288.72 99.2C289.28 99.52 289.973 99.68 290.8 99.68V101H285.76C284.986 100.307 284.333 99.6133 283.8 98.92C283.293 98.2267 282.76 97.44 282.2 96.56L279.52 92.28C279.173 91.72 278.773 91.08 278.32 90.36C277.893 89.6133 277.4 88.9867 276.84 88.48C276.413 88.5067 275.96 88.52 275.48 88.52C275.026 88.52 274.573 88.5067 274.12 88.48V96.24C274.12 96.96 274.106 97.5867 274.08 98.12C274.08 98.6267 274.053 99.0533 274 99.4C274.32 99.3733 274.64 99.36 274.96 99.36C275.28 99.3333 275.6 99.3067 275.92 99.28C276.24 99.2533 276.56 99.24 276.88 99.24V101H267.88ZM276.6 87C278.066 86.9467 279.346 86.7067 280.44 86.28C281.56 85.8533 282.44 85.1733 283.08 84.24C283.72 83.3067 284.04 82.08 284.04 80.56C284.04 79.5467 283.893 78.6667 283.6 77.92C283.333 77.1467 282.906 76.5067 282.32 76C281.733 75.4933 280.986 75.12 280.08 74.88C279.173 74.6133 278.106 74.48 276.88 74.48C275.893 74.48 275.2 74.68 274.8 75.08C274.426 75.48 274.213 76.04 274.16 76.76C274.133 77.4533 274.12 78.28 274.12 79.24V86.92C274.546 86.9467 274.946 86.9733 275.32 87C275.72 87.0267 276.146 87.0267 276.6 87ZM319.225 81.48C319.145 80.2 318.838 78.9867 318.305 77.84C317.771 76.6933 316.998 75.76 315.985 75.04C314.971 74.32 313.678 73.96 312.105 73.96C310.451 73.96 309.185 74.4267 308.305 75.36C307.425 76.2933 306.985 77.3867 306.985 78.64C306.985 79.76 307.305 80.7067 307.945 81.48C308.585 82.2267 309.411 82.8933 310.425 83.48C311.465 84.04 312.558 84.5867 313.705 85.12C314.718 85.5733 315.731 86.0667 316.745 86.6C317.758 87.1067 318.678 87.6933 319.505 88.36C320.331 89.0267 320.985 89.8267 321.465 90.76C321.971 91.6667 322.225 92.76 322.225 94.04C322.225 95.5067 321.851 96.8133 321.105 97.96C320.385 99.1067 319.331 100.013 317.945 100.68C316.558 101.32 314.865 101.64 312.865 101.64C311.665 101.64 310.425 101.467 309.145 101.12C307.865 100.773 306.731 100.267 305.745 99.6L305.945 101.32H303.865L303.625 92.8H305.185C305.318 95.1467 306.131 96.9333 307.625 98.16C309.118 99.36 310.918 99.96 313.025 99.96C314.065 99.96 315.025 99.7733 315.905 99.4C316.785 99 317.478 98.4267 317.985 97.68C318.518 96.9333 318.785 96.0267 318.785 94.96C318.785 93.76 318.465 92.76 317.825 91.96C317.185 91.16 316.358 90.4667 315.345 89.88C314.331 89.2933 313.251 88.7333 312.105 88.2C311.091 87.7467 310.091 87.2667 309.105 86.76C308.118 86.2533 307.211 85.68 306.385 85.04C305.585 84.3733 304.931 83.5867 304.425 82.68C303.945 81.7733 303.705 80.68 303.705 79.4C303.705 78.7067 303.825 77.96 304.065 77.16C304.305 76.36 304.718 75.6 305.305 74.88C305.918 74.1333 306.745 73.5333 307.785 73.08C308.851 72.6 310.198 72.36 311.825 72.36C312.838 72.36 313.971 72.5067 315.225 72.8C316.505 73.0667 317.691 73.6 318.785 74.4L318.625 72.68H320.665V81.48H319.225Z" fill="black"/>
</svg>
