<svg xmlns="http://www.w3.org/2000/svg" version="1.0" preserveAspectRatio="xMidYMid meet" viewBox="337 110 585.86 628.14"><g transform="translate(0.000000,914.000000) scale(0.100000,-0.100000)" stroke="none"><path d="M5325 8008 c-3 -18 -37 -323 -75 -678 -39 -355 -89 -805 -110 -1000 -22 -195 -78 -706 -125 -1135 -47 -429 -104 -940 -125 -1136 -22 -196 -40 -364 -40 -373 0 -15 122 -16 1415 -16 l1415 0 0 445 0 445 -870 0 c-633 0 -870 3 -870 11 0 6 18 172 40 368 21 196 73 667 115 1046 42 380 98 893 125 1140 28 248 59 533 70 635 11 102 22 206 25 233 l6 47 -495 0 -495 0 -6 -32z"></path><path d="M5251 2749 c-113 -22 -242 -108 -305 -203 -136 -205 -109 -485 63 -649 198 -189 528 -184 714 12 94 98 137 209 137 351 0 148 -52 272 -152 365 -120 111 -289 157 -457 124z m224 -199 c196 -84 245 -370 90 -525 -55 -55 -116 -79 -200 -79 -122 -1 -212 56 -266 169 -25 52 -29 72 -29 145 0 97 26 169 83 228 79 83 213 109 322 62z"></path><path d="M3377 2734 c-4 -4 -7 -220 -7 -480 0 -421 2 -473 16 -478 9 -3 156 -6 329 -6 256 0 315 3 324 14 8 9 11 43 9 93 l-3 78 -242 3 -243 2 -2 388 -3 387 -85 3 c-47 1 -89 0 -93 -4z"></path><path d="M6663 2725 c-3 -9 47 -143 111 -298 65 -155 152 -366 194 -469 l77 -188 85 0 85 0 193 471 c107 259 191 478 188 485 -5 12 -26 14 -103 12 l-97 -3 -83 -215 c-46 -118 -104 -268 -130 -332 -25 -65 -49 -116 -53 -113 -4 2 -65 153 -136 335 l-129 330 -98 0 c-78 0 -99 -3 -104 -15z"></path><path d="M8507 2733 c-4 -3 -7 -217 -7 -474 0 -453 1 -469 19 -479 24 -12 679 -14 699 -1 9 5 12 31 10 92 l-3 84 -262 3 -263 2 0 105 0 105 224 0 c180 0 226 3 235 14 7 9 11 42 9 88 l-3 73 -232 3 -233 2 0 105 0 105 254 0 c206 0 256 3 265 14 7 9 11 42 9 88 l-3 73 -356 3 c-195 1 -358 -1 -362 -5z"></path></g></svg>
